# xmcd
#
# Track frame offsets:
#	150
#	8409
#	24870
#	40074
#	57916
#	73412
#	87556
#	105770
#	123864
#	141108
#	157145
#	167669
#
# Disc length: 2456 seconds
#
# Revision: 0
# Processed by: cddbd v1.5.1PL2 Copyright (c) Steve Scherf et al.
# Submitted via: MusicManager 7.3.0.0 
#
DISCID=9109960c
DTITLE=Bic Runga - Beautiful Collision
DYEAR=1900
DGENRE=misc
TTITLE0=When I See You Smile
TTITLE1=Get Some Sleep
TTITLE2=Something Good
TTITLE3=Precious Things
TTITLE4=The Be All And End All
TTITLE5=Election Night
TTITLE6=Honest Goodbyes
TTITLE7=She Left On A Monday
TTITLE8=Beautiful Collision
TTITLE9=Listening For The Weather
TTITLE10=Counting The Days
TTITLE11=Gravity
EXTD=
EXTT0=
EXTT1=
EXTT2=
EXTT3=
EXTT4=
EXTT5=
EXTT6=
EXTT7=
EXTT8=
EXTT9=
EXTT10=
EXTT11=
PLAYORDER=
